<svg width="40" height="40" viewBox="0 0 40 40" fill="none" xmlns="http://www.w3.org/2000/svg">
<path d="M19.9994 11C16.4048 11 13.4805 13.9244 13.4805 17.5189C13.4805 21.9798 19.3143 28.5287 19.5626 28.8053C19.7959 29.0651 20.2033 29.0647 20.4361 28.8053C20.6845 28.5287 26.5183 21.9798 26.5183 17.5189C26.5182 13.9244 23.5939 11 19.9994 11ZM19.9994 20.7987C18.1909 20.7987 16.7196 19.3274 16.7196 17.5189C16.7196 15.7104 18.1909 14.2391 19.9994 14.2391C21.8079 14.2391 23.2791 15.7104 23.2791 17.5189C23.2791 19.3274 21.8079 20.7987 19.9994 20.7987Z" fill="#1093EA"/>
<circle cx="20" cy="20" r="19.5" stroke="#1093EA"/>
</svg>
