<svg width="40" height="40" viewBox="0 0 40 40" fill="none" xmlns="http://www.w3.org/2000/svg">
<g clip-path="url(#clip0)">
<path d="M25.6563 17.8906C25.4792 18.0156 24.9453 18.3867 24.0547 19.0039C23.1641 19.6211 22.4818 20.0963 22.0078 20.4295C21.9558 20.4661 21.8451 20.5455 21.6759 20.6679C21.5066 20.7903 21.366 20.8893 21.2541 20.9648C21.1421 21.0403 21.0067 21.125 20.8477 21.2187C20.6889 21.3123 20.5391 21.3827 20.3985 21.4294C20.2578 21.4764 20.1276 21.4997 20.0079 21.4997H20H19.9921C19.8723 21.4997 19.7421 21.4764 19.6014 21.4294C19.4609 21.3827 19.311 21.3122 19.1522 21.2187C18.9934 21.1248 18.858 21.0403 18.746 20.9648C18.634 20.8893 18.4935 20.7903 18.3242 20.6679C18.1549 20.5454 18.0442 20.4661 17.9921 20.4295C17.513 20.0963 16.2942 19.2499 14.3359 17.8904C13.9557 17.6249 13.6381 17.3046 13.3829 16.9295C13.1275 16.5547 13 16.1614 13 15.75C13 15.4062 13.1238 15.1119 13.3712 14.8672C13.6186 14.6223 13.9116 14.5 14.25 14.5H25.7501C26.1511 14.5 26.4597 14.6354 26.6758 14.9062C26.8919 15.177 27 15.5156 27 15.9218C27 16.2499 26.8567 16.6055 26.5703 16.9883C26.2839 17.3711 25.9791 17.6719 25.6563 17.8906Z" fill="#1093EA"/>
<path d="M13.7814 18.7265C15.4895 19.8827 16.7865 20.7812 17.6718 21.4219C17.9687 21.6406 18.2095 21.8112 18.3945 21.9336C18.5794 22.056 18.8254 22.181 19.1328 22.3085C19.44 22.4362 19.7263 22.4999 19.992 22.4999H20H20.0078C20.2734 22.4999 20.5599 22.4362 20.8672 22.3085C21.1744 22.181 21.4206 22.056 21.6055 21.9336C21.7903 21.8112 22.0312 21.6406 22.3281 21.4219C23.0312 20.9063 24.3255 20.0077 26.2109 18.7265C26.5078 18.5288 26.7708 18.302 27 18.0469V24.2498C27 24.5938 26.8777 24.8879 26.6328 25.1327C26.3881 25.3776 26.0937 25.5 25.75 25.5H14.2499C13.9062 25.5 13.6119 25.3776 13.3671 25.1327C13.1223 24.8878 13 24.5938 13 24.2498V18.0469C13.224 18.2968 13.4843 18.5235 13.7814 18.7265Z" fill="#1093EA"/>
</g>
<circle cx="20" cy="20" r="19.5" stroke="#1093EA"/>
<defs>
<clipPath id="clip0">
<rect width="14" height="14" fill="white" transform="matrix(-1 0 0 1 27 13)"/>
</clipPath>
</defs>
</svg>
