<svg width="26" height="26" viewBox="0 0 26 26" fill="none" xmlns="http://www.w3.org/2000/svg">
<g clip-path="url(#clip0)">
<path d="M18.9641 15.4994L18.9544 15.5806C16.5721 14.3933 16.3229 14.2351 16.0153 14.6966C15.8019 15.0162 15.18 15.7409 14.9926 15.9554C14.803 16.1667 14.6145 16.1829 14.2928 16.0367C13.9678 15.8742 12.9245 15.5329 11.6895 14.4279C10.7275 13.5667 10.0819 12.5104 9.8912 12.1854C9.57378 11.6373 10.2379 11.5593 10.8424 10.4153C10.9507 10.1878 10.8954 10.009 10.8153 9.8476C10.734 9.6851 10.0873 8.0926 9.81645 7.45777C9.55645 6.8251 9.28886 6.90527 9.08845 6.90527C8.46445 6.8511 8.00836 6.85977 7.60645 7.27794C5.85795 9.19977 6.29886 11.1823 7.79495 13.2904C10.7351 17.1384 12.3016 17.8469 15.1659 18.8306C15.9394 19.0765 16.6447 19.0419 17.2026 18.9617C17.8244 18.8631 19.1169 18.1806 19.3866 17.4169C19.6629 16.6531 19.6629 16.0194 19.5816 15.8731C19.5014 15.7269 19.2891 15.6456 18.9641 15.4994Z" fill="#1093EA"/>
<path d="M22.23 3.73591C13.9003 -4.31651 0.114833 1.52374 0.109417 12.8836C0.109417 15.1542 0.704167 17.3686 1.83733 19.324L0 25.9995L6.86292 24.2098C15.4267 28.8357 25.9957 22.6932 26 12.8901C26 9.44941 24.6567 6.21133 22.2138 3.77816L22.23 3.73591ZM23.8355 12.8543C23.829 21.1234 14.7517 26.2877 7.5725 22.067L7.1825 21.8352L3.12 22.8914L4.20875 18.9427L3.94983 18.5364C-0.517834 11.4243 4.615 2.12933 13.078 2.12933C15.9532 2.12933 18.6518 3.25058 20.6841 5.28183C22.7153 7.29574 23.8355 9.99433 23.8355 12.8543Z" fill="#1093EA"/>
</g>
<defs>
<clipPath id="clip0">
<rect width="26" height="26" fill="white"/>
</clipPath>
</defs>
</svg>
