<svg width="34" height="26" viewBox="0 0 34 26" fill="none" xmlns="http://www.w3.org/2000/svg">
<path d="M33.2482 4.40009L33.2907 4.67775C32.8798 3.22 31.7706 2.09517 30.361 1.68575L30.3312 1.67867C27.6807 0.959004 17.0146 0.959004 17.0146 0.959004C17.0146 0.959004 6.37542 0.944837 3.69792 1.67867C2.26142 2.09517 1.15075 3.22 0.747 4.648L0.739917 4.67775C-0.250333 9.85001 -0.257417 16.0649 0.783833 21.6027L0.739917 21.3222C1.15075 22.7799 2.26 23.9048 3.66958 24.3142L3.69933 24.3213C6.34708 25.0423 17.016 25.0423 17.016 25.0423C17.016 25.0423 27.6537 25.0423 30.3327 24.3213C31.7706 23.9048 32.8812 22.7799 33.285 21.3519L33.2921 21.3222C33.7426 18.9167 34.0004 16.1485 34.0004 13.3208C34.0004 13.2174 34.0004 13.1126 33.999 13.0078C34.0004 12.9114 34.0004 12.7967 34.0004 12.6819C34.0004 9.85284 33.7426 7.08467 33.2482 4.40009ZM13.6118 18.1729V7.84117L22.4886 13.0148L13.6118 18.1729Z" fill="#1093EA"/>
</svg>
