<svg width="40" height="40" viewBox="0 0 40 40" fill="none" xmlns="http://www.w3.org/2000/svg">
<circle cx="20" cy="20" r="19.5" stroke="#1093EA"/>
<g clip-path="url(#clip0)">
<path d="M26.7964 22.8458C25.878 22.8458 24.9763 22.7021 24.1218 22.4198C23.7031 22.277 23.1884 22.408 22.9329 22.6704L21.2463 23.9436C19.2903 22.8995 18.0854 21.6951 17.0556 19.7538L18.2913 18.1111C18.6124 17.7905 18.7275 17.3221 18.5896 16.8827C18.306 16.0237 18.1619 15.1224 18.1619 14.2037C18.162 13.54 17.622 13 16.9583 13H14.2036C13.54 13 13 13.54 13 14.2036C13 21.8111 19.189 28 26.7964 28C27.4601 28 28 27.46 28 26.7964V24.0494C28 23.3857 27.46 22.8458 26.7964 22.8458Z" fill="#1093EA"/>
</g>
<defs>
<clipPath id="clip0">
<rect width="15" height="15" fill="white" transform="translate(13 13)"/>
</clipPath>
</defs>
</svg>
