<svg width="34" height="20" viewBox="0 0 34 20" fill="none" xmlns="http://www.w3.org/2000/svg">
<path d="M28.2129 11.456C27.6632 10.7618 27.8205 10.453 28.2129 9.83251C28.22 9.82543 32.7576 3.55526 33.2251 1.42884L33.2279 1.42742C33.4603 0.652508 33.2279 0.0830078 32.1045 0.0830078H28.3872C27.4408 0.0830078 27.0045 0.571758 26.7707 1.11859C26.7707 1.11859 24.8781 5.64909 22.2006 8.58584C21.3364 9.43442 20.9369 9.70643 20.4652 9.70643C20.2328 9.70643 19.8716 9.43442 19.8716 8.65951V1.42742C19.8716 0.498091 19.6067 0.0830078 18.8232 0.0830078H12.9781C12.3845 0.0830078 12.0317 0.516508 12.0317 0.920258C12.0317 1.80142 13.3705 2.00401 13.5093 4.48317V9.86226C13.5093 11.0409 13.2954 11.2577 12.8208 11.2577C11.5572 11.2577 8.49008 6.70876 6.6725 1.50251C6.30558 0.492424 5.94717 0.0844244 4.99375 0.0844244H1.275C0.213917 0.0844244 0 0.573174 0 1.12001C0 2.08617 1.26367 6.89009 5.87633 13.2368C8.9505 17.5689 13.2798 19.9163 17.2182 19.9163C19.5854 19.9163 19.8744 19.395 19.8744 18.4983C19.8744 14.3588 19.6605 13.9678 20.8463 13.9678C21.3959 13.9678 22.3422 14.2398 24.5522 16.3293C27.0782 18.8071 27.4932 19.9163 28.9071 19.9163H32.6244C33.6841 19.9163 34.221 19.395 33.9122 18.3665C33.2052 16.2033 28.4283 11.7535 28.2129 11.456Z" fill="#1093EA"/>
</svg>
