<svg width="57" height="57" viewBox="0 0 57 57" fill="none" xmlns="http://www.w3.org/2000/svg">
<rect width="57" height="57" fill="white"/>
<path d="M22.045 19.215H18.835V27H16.51V19.215H13.3V17.25H22.045V19.215ZM25.7787 17.37C26.3887 17.17 27.0187 17.07 27.6687 17.07C28.3187 17.07 28.9437 17.175 29.5437 17.385C30.1537 17.585 30.7137 17.88 31.2237 18.27C31.7337 18.66 32.1437 19.18 32.4537 19.83C32.7637 20.48 32.9187 21.215 32.9187 22.035C32.9187 22.935 32.7737 23.725 32.4837 24.405C32.1937 25.085 31.7937 25.62 31.2837 26.01C30.7837 26.4 30.2287 26.695 29.6187 26.895C29.0087 27.085 28.3537 27.18 27.6537 27.18C26.9537 27.18 26.2987 27.085 25.6887 26.895C25.0787 26.695 24.5237 26.4 24.0237 26.01C23.5237 25.62 23.1287 25.085 22.8387 24.405C22.5487 23.725 22.4037 22.935 22.4037 22.035C22.4037 21.215 22.5587 20.48 22.8687 19.83C23.1787 19.17 23.5887 18.645 24.0987 18.255C24.6087 17.865 25.1687 17.57 25.7787 17.37ZM29.6787 19.92C29.1387 19.4 28.4637 19.14 27.6537 19.14C26.8437 19.14 26.1687 19.4 25.6287 19.92C25.0987 20.43 24.8337 21.14 24.8337 22.05C24.8337 23.09 25.1137 23.865 25.6737 24.375C26.2337 24.885 26.8987 25.14 27.6687 25.14C28.4387 25.14 29.0987 24.885 29.6487 24.375C30.2087 23.865 30.4887 23.09 30.4887 22.05C30.4887 21.14 30.2187 20.43 29.6787 19.92ZM43.7075 27H41.3975L36.8525 20.43V27H34.5725V17.265H37.2575L41.4275 23.37V17.265H43.7075V27Z" fill="#333333"/>
<path d="M14.05 33.25H18.055C20.965 33.25 22.42 34.08 22.42 35.74C22.42 36.2 22.275 36.63 21.985 37.03C21.695 37.43 21.265 37.73 20.695 37.93V37.975C21.275 38.065 21.78 38.305 22.21 38.695C22.64 39.075 22.855 39.56 22.855 40.15C22.855 42.05 21.445 43 18.625 43H14.05V33.25ZM16.375 35.125V37.21H18.145C18.715 37.21 19.16 37.135 19.48 36.985C19.81 36.835 19.975 36.55 19.975 36.13C19.975 35.72 19.815 35.45 19.495 35.32C19.175 35.19 18.745 35.125 18.205 35.125H16.375ZM16.375 38.875V41.125H18.61C19.23 41.125 19.685 41.045 19.975 40.885C20.275 40.715 20.425 40.43 20.425 40.03C20.425 39.58 20.255 39.275 19.915 39.115C19.585 38.955 19.095 38.875 18.445 38.875H16.375ZM27.5072 33.37C28.1172 33.17 28.7472 33.07 29.3972 33.07C30.0472 33.07 30.6722 33.175 31.2722 33.385C31.8822 33.585 32.4422 33.88 32.9522 34.27C33.4622 34.66 33.8722 35.18 34.1822 35.83C34.4922 36.48 34.6472 37.215 34.6472 38.035C34.6472 38.935 34.5022 39.725 34.2122 40.405C33.9222 41.085 33.5222 41.62 33.0122 42.01C32.5122 42.4 31.9572 42.695 31.3472 42.895C30.7372 43.085 30.0822 43.18 29.3822 43.18C28.6822 43.18 28.0272 43.085 27.4172 42.895C26.8072 42.695 26.2522 42.4 25.7522 42.01C25.2522 41.62 24.8572 41.085 24.5672 40.405C24.2772 39.725 24.1322 38.935 24.1322 38.035C24.1322 37.215 24.2872 36.48 24.5972 35.83C24.9072 35.17 25.3172 34.645 25.8272 34.255C26.3372 33.865 26.8972 33.57 27.5072 33.37ZM31.4072 35.92C30.8672 35.4 30.1922 35.14 29.3822 35.14C28.5722 35.14 27.8972 35.4 27.3572 35.92C26.8272 36.43 26.5622 37.14 26.5622 38.05C26.5622 39.09 26.8422 39.865 27.4022 40.375C27.9622 40.885 28.6272 41.14 29.3972 41.14C30.1672 41.14 30.8272 40.885 31.3772 40.375C31.9372 39.865 32.2172 39.09 32.2172 38.05C32.2172 37.14 31.9472 36.43 31.4072 35.92ZM41.5084 38.095L45.2284 43H42.3334L40.0234 39.805L37.6534 43H34.8484L38.5534 38.095L34.8634 33.25H37.8334L39.9934 36.49L42.1384 33.25H45.0484L41.5084 38.095Z" fill="#1093EA"/>
</svg>
