<svg width="174" height="23" viewBox="0 0 174 23" fill="none" xmlns="http://www.w3.org/2000/svg">
<path d="M19.296 5.392H12.448V22H7.488V5.392H0.64V1.2H19.296V5.392ZM27.2613 1.456C28.5626 1.02933 29.9066 0.815998 31.2933 0.815998C32.6799 0.815998 34.0133 1.04 35.2933 1.488C36.5946 1.91467 37.7893 2.544 38.8773 3.376C39.9653 4.208 40.8399 5.31733 41.5013 6.704C42.1626 8.09067 42.4933 9.65867 42.4933 11.408C42.4933 13.328 42.1839 15.0133 41.5653 16.464C40.9466 17.9147 40.0933 19.056 39.0053 19.888C37.9386 20.72 36.7546 21.3493 35.4533 21.776C34.1519 22.1813 32.7546 22.384 31.2613 22.384C29.7679 22.384 28.3706 22.1813 27.0693 21.776C25.7679 21.3493 24.5839 20.72 23.5173 19.888C22.4506 19.056 21.6079 17.9147 20.9893 16.464C20.3706 15.0133 20.0613 13.328 20.0613 11.408C20.0613 9.65867 20.3919 8.09067 21.0533 6.704C21.7146 5.296 22.5893 4.176 23.6773 3.344C24.7653 2.512 25.9599 1.88267 27.2613 1.456ZM35.5813 6.896C34.4293 5.78667 32.9893 5.232 31.2613 5.232C29.5333 5.232 28.0933 5.78667 26.9413 6.896C25.8106 7.984 25.2453 9.49867 25.2453 11.44C25.2453 13.6587 25.8426 15.312 27.0373 16.4C28.2319 17.488 29.6506 18.032 31.2933 18.032C32.9359 18.032 34.3439 17.488 35.5173 16.4C36.7119 15.312 37.3093 13.6587 37.3093 11.44C37.3093 9.49867 36.7333 7.984 35.5813 6.896ZM65.5093 22H60.5813L50.8853 7.984V22H46.0213V1.232H51.7493L60.6453 14.256V1.232H65.5093V22ZM69.99 1.2H78.534C84.742 1.2 87.846 2.97067 87.846 6.512C87.846 7.49333 87.5367 8.41067 86.918 9.264C86.2993 10.1173 85.382 10.7573 84.166 11.184V11.28C85.4033 11.472 86.4807 11.984 87.398 12.816C88.3153 13.6267 88.774 14.6613 88.774 15.92C88.774 19.9733 85.766 22 79.75 22H69.99V1.2ZM74.95 5.2V9.648H78.726C79.942 9.648 80.8913 9.488 81.574 9.168C82.278 8.848 82.63 8.24 82.63 7.344C82.63 6.46933 82.2887 5.89333 81.606 5.616C80.9233 5.33867 80.006 5.2 78.854 5.2H74.95ZM74.95 13.2V18H79.718C81.0407 18 82.0113 17.8293 82.63 17.488C83.27 17.1253 83.59 16.5173 83.59 15.664C83.59 14.704 83.2273 14.0533 82.502 13.712C81.798 13.3707 80.7527 13.2 79.366 13.2H74.95ZM98.6988 1.456C100 1.02933 101.344 0.815998 102.731 0.815998C104.117 0.815998 105.451 1.04 106.731 1.488C108.032 1.91467 109.227 2.544 110.315 3.376C111.403 4.208 112.277 5.31733 112.939 6.704C113.6 8.09067 113.931 9.65867 113.931 11.408C113.931 13.328 113.621 15.0133 113.003 16.464C112.384 17.9147 111.531 19.056 110.443 19.888C109.376 20.72 108.192 21.3493 106.891 21.776C105.589 22.1813 104.192 22.384 102.699 22.384C101.205 22.384 99.8081 22.1813 98.5068 21.776C97.2054 21.3493 96.0214 20.72 94.9548 19.888C93.8881 19.056 93.0454 17.9147 92.4268 16.464C91.8081 15.0133 91.4988 13.328 91.4988 11.408C91.4988 9.65867 91.8294 8.09067 92.4908 6.704C93.1521 5.296 94.0268 4.176 95.1148 3.344C96.2028 2.512 97.3974 1.88267 98.6988 1.456ZM107.019 6.896C105.867 5.78667 104.427 5.232 102.699 5.232C100.971 5.232 99.5308 5.78667 98.3788 6.896C97.2481 7.984 96.6828 9.49867 96.6828 11.44C96.6828 13.6587 97.2801 15.312 98.4748 16.4C99.6694 17.488 101.088 18.032 102.731 18.032C104.373 18.032 105.781 17.488 106.955 16.4C108.149 15.312 108.747 13.6587 108.747 11.44C108.747 9.49867 108.171 7.984 107.019 6.896ZM128.568 11.536L136.504 22H130.328L125.4 15.184L120.344 22H114.36L122.264 11.536L114.392 1.2H120.728L125.336 8.112L129.912 1.2H136.12L128.568 11.536Z" fill="white"/>
<path d="M153.507 1.2V4.496C151.544 7.33333 149.635 10.4267 147.779 13.776C145.944 17.104 144.622 19.8453 143.811 22H138.435C139.864 18.6933 141.55 15.3653 143.491 12.016C145.432 8.64533 146.84 6.42667 147.715 5.36H137.027V1.2H153.507ZM164.882 1.2H170.898C165.415 6.55467 161.575 10.8853 159.378 14.192H165.394V9.648H170.226V14.192H173.298V18.352H170.226V22H165.394V18.352H153.842V14.48C156.274 10.64 159.954 6.21333 164.882 1.2Z" fill="#1093EA"/>
</svg>
